<?xml version="1.0" encoding="UTF-8"?>
<svg width="31px" height="31px" viewBox="0 0 31 31" version="1.1" xmlns="http://www.w3.org/2000/svg" xmlns:xlink="http://www.w3.org/1999/xlink">
    <!-- Generator: Sketch 39.1 (31720) - http://www.bohemiancoding.com/sketch -->
    <title>主页</title>
    <desc>Created with Sketch.</desc>
    <defs></defs>
    <g id="Symbols" stroke="none" stroke-width="1" fill="none" fill-rule="evenodd">
        <g id="底部状态栏new" transform="translate(-72.000000, -7.000000)">
            <g id="主页" transform="translate(72.000000, 7.000000)">
                <path d="M15.5,31 C24.0604136,31 31,24.0604136 31,15.5 C31,6.93958638 24.0604136,0 15.5,0 C6.93958638,0 0,6.93958638 0,15.5 C0,24.0604136 6.93958638,31 15.5,31 Z" id="Oval" fill-opacity="0.76" fill="#4A90E2"></path>
                <path d="M13.9503186,7.48355973 C14.8093728,6.78474 16.2079306,6.7894221 17.0612291,7.48355973 L23.4992635,12.7207443 C24.3583178,13.419564 24.1592033,13.9860693 23.047006,13.9860693 L7.96454179,13.9860693 C6.85571262,13.9860693 6.6589857,13.4148819 7.51228424,12.7207443 L13.9503186,7.48355973 Z" id="Triangle" fill="#FFFFFF"></path>
                <path d="M9,13 L22,13 L22,20.0026083 C22,21.1057373 21.105519,22 19.9967897,22 L16.9314876,22 L16.9314876,18.1040297 L14.0440307,18.1040297 L14.0440307,22 L10.9935345,22 C9.89253579,22 9,21.1041422 9,20.0026083 L9,13 Z" id="Rectangle" fill="#FFFFFF"></path>
            </g>
        </g>
    </g>
</svg>