<?xml version="1.0" encoding="UTF-8"?>
<svg width="31px" height="31px" viewBox="0 0 31 31" version="1.1" xmlns="http://www.w3.org/2000/svg" xmlns:xlink="http://www.w3.org/1999/xlink">
    <!-- Generator: Sketch 39.1 (31720) - http://www.bohemiancoding.com/sketch -->
    <title>我的</title>
    <desc>Created with Sketch.</desc>
    <defs></defs>
    <g id="Symbols" stroke="none" stroke-width="1" fill="none" fill-rule="evenodd">
        <g id="底部状态栏new" transform="translate(-308.000000, -7.000000)">
            <g id="我的" transform="translate(308.000000, 7.000000)">
                <path d="M15.5,31 C24.0604136,31 31,24.0604136 31,15.5 C31,6.93958638 24.0604136,0 15.5,0 C6.93958638,0 0,6.93958638 0,15.5 C0,24.0604136 6.93958638,31 15.5,31 Z" id="Oval" fill-opacity="0.76" fill="#4A90E2"></path>
                <circle id="Oval-2" fill="#FFFFFF" cx="15.5" cy="10.5" r="5.5"></circle>
                <path d="M8.84786144,18.9954138 C9.58990809,17.790323 11.445855,16.139665 11.445855,16.139665 C11.445855,16.139665 13.2565768,17.7859861 15.5249415,17.7918692 C17.7933061,17.7977523 19.6777845,16.139665 19.6777845,16.139665 C19.6777845,16.139665 22.0642719,18.8136065 22.3713728,19.3187078 C23.5279906,21.2210441 23.5500615,22.0680841 23.5500615,22.0680841 C23.6634969,22.5922923 23.2980733,23.017247 22.7575317,23.017247 L22.7461973,23.017247 L8.21819662,23.017247 C7.6688813,23.017247 7.33037883,22.5899516 7.48493351,22.0616732 C7.48493351,22.0616732 7.67517497,20.8998679 8.84786144,18.9954138 Z" id="Triangle-2" fill="#FFFFFF"></path>
            </g>
        </g>
    </g>
</svg>