<?xml version="1.0" encoding="UTF-8"?>
<svg width="19px" height="17px" viewBox="0 0 19 17" version="1.1" xmlns="http://www.w3.org/2000/svg" xmlns:xlink="http://www.w3.org/1999/xlink">
    <!-- Generator: Sketch 39.1 (31720) - http://www.bohemiancoding.com/sketch -->
    <title>喜欢</title>
    <desc>Created with Sketch.</desc>
    <defs></defs>
    <g id="Index" stroke="none" stroke-width="1" fill="none" fill-rule="evenodd">
        <g id="等待直播-任务详情" transform="translate(-259.000000, -279.000000)" stroke="#9B9B9B">
            <g id="喜欢" transform="translate(260.000000, 280.000000)">
                <path d="M9,14.3959961 C9.07395925,14.5957642 9.14791851,14.7561646 9.14791851,14.7561646 C9.14791851,14.7561646 17.4603885,9.28994303 17.4603885,4.08424711 C17.4603885,1.41377767 15.3286502,-2.84719874e-08 12.8141004,0 C10.5547222,2.5582706e-08 9.14791851,1.67592204 9.14791851,1.67592204 L9,1.24149811" id="Oval-10"></path>
                <path d="M1.1268921,14.3771973 C1.1268921,14.4494425 5.68434189e-14,15.0476685 5.68434189e-14,15.0476685 L0.719543139,14.6601563 C0.719543139,14.6601563 9.17993164,9.28994303 9.17993164,4.08424711 C9.17993164,1.41377767 7.04819338,-2.84719874e-08 4.53364359,0 C2.27426537,2.5582706e-08 0.719543139,1.50975728 0.719543139,1.50975728 L0.719543139,1.13959253" id="Oval-10" transform="translate(4.589966, 7.523834) scale(-1, 1) translate(-4.589966, -7.523834) "></path>
            </g>
        </g>
    </g>
</svg>