<?xml version="1.0" encoding="UTF-8"?>
<svg width="22px" height="16px" viewBox="0 0 22 16" version="1.1" xmlns="http://www.w3.org/2000/svg" xmlns:xlink="http://www.w3.org/1999/xlink">
    <!-- Generator: Sketch 39.1 (31720) - http://www.bohemiancoding.com/sketch -->
    <title>News</title>
    <desc>Created with Sketch.</desc>
    <defs>
        <path d="M0,1.99406028 C0,0.892771196 0.889673948,0 1.991155,0 L20.008845,0 C21.1085295,0 22,0.894513756 22,1.99406028 L22,14.0059397 C22,15.1072288 21.1054612,16 20.004997,16 L13.4909124,16 L1.99063058,16 C0.891235669,16 0,15.1054862 0,14.0059397 L0,1.99406028 Z" id="path-1"></path>
        <mask id="mask-2" maskContentUnits="userSpaceOnUse" maskUnits="objectBoundingBox" x="0" y="0" width="22" height="16" fill="white">
            <use xlink:href="#path-1"></use>
        </mask>
        <mask id="mask-4" maskContentUnits="userSpaceOnUse" maskUnits="objectBoundingBox" x="0" y="0" width="22" height="16" fill="white">
            <use xlink:href="#path-1"></use>
        </mask>
        <path d="M9.47416072,0.533323134 C10.3168585,-0.177398849 11.6822511,-0.178149808 12.5258393,0.533323134 L23.047619,9.40727594 L-1.04761905,9.40727594 L9.47416072,0.533323134 Z" id="path-5"></path>
        <mask id="mask-6" maskContentUnits="userSpaceOnUse" maskUnits="objectBoundingBox" x="0" y="0" width="24.0952381" height="9.40727594" fill="white">
            <use xlink:href="#path-5"></use>
        </mask>
    </defs>
    <g id="Myaccount" stroke="none" stroke-width="1" fill="none" fill-rule="evenodd">
        <g id="未登录状态" transform="translate(-330.000000, -34.000000)">
            <g id="News" transform="translate(330.000000, 34.000000)">
                <g>
                    <mask id="mask-3" fill="white">
                        <use xlink:href="#path-1"></use>
                    </mask>
                    <g id="Rectangle-3" stroke="#FFFFFF" mask="url(#mask-2)" stroke-width="2">
                        <use mask="url(#mask-4)" xlink:href="#path-1"></use>
                    </g>
                    <g id="Triangle-3" mask="url(#mask-3)" transform="translate(11.000000, 4.703638) scale(1, -1) translate(-11.000000, -4.703638) " stroke-width="2" stroke="#FFFFFF">
                        <use mask="url(#mask-6)" xlink:href="#path-5"></use>
                    </g>
                </g>
            </g>
        </g>
    </g>
</svg>