<?xml version="1.0" encoding="UTF-8"?>
<svg width="31px" height="31px" viewBox="0 0 31 31" version="1.1" xmlns="http://www.w3.org/2000/svg" xmlns:xlink="http://www.w3.org/1999/xlink">
    <!-- Generator: Sketch 39.1 (31720) - http://www.bohemiancoding.com/sketch -->
    <title>地图</title>
    <desc>Created with Sketch.</desc>
    <defs></defs>
    <g id="Symbols" stroke="none" stroke-width="1" fill="none" fill-rule="evenodd">
        <g id="底部状态栏new" transform="translate(-190.000000, -7.000000)">
            <g id="地图" transform="translate(190.000000, 7.000000)">
                <path d="M15.5,31 C24.0604136,31 31,24.0604136 31,15.5 C31,6.93958638 24.0604136,0 15.5,0 C6.93958638,0 0,6.93958638 0,15.5 C0,24.0604136 6.93958638,31 15.5,31 Z" id="Oval" fill-opacity="0.76" fill="#4A90E2"></path>
                <path d="M15.0309166,24.0120222 C15.2899842,24.4992742 15.721536,24.4960331 15.9872817,24.0120222 C15.9872817,24.0120222 21.3329535,14.5375661 21.3329535,11.5 C21.3329535,8.46243388 19.0898509,6 15.5,6 C11.9101491,6 9.88488704,8.46243388 9.88488704,11.5 C9.88488704,14.5375661 15.0309166,24.0120222 15.0309166,24.0120222 Z" id="Oval-3" fill="#FFFFFF"></path>
                <circle id="Oval-4" fill-opacity="0.76" fill="#4A90E2" cx="15.5" cy="11.5" r="2.5"></circle>
            </g>
        </g>
    </g>
</svg>